<?xml version="1.0" encoding="UTF-8" standalone="no"?>
<!-- Generator: Adobe Illustrator 16.0.0, SVG Export Plug-In . SVG Version: 6.00 Build 0)  -->

<svg
   xmlns:dc="http://purl.org/dc/elements/1.1/"
   xmlns:cc="http://creativecommons.org/ns#"
   xmlns:rdf="http://www.w3.org/1999/02/22-rdf-syntax-ns#"
   xmlns:svg="http://www.w3.org/2000/svg"
   xmlns="http://www.w3.org/2000/svg"
   xmlns:sodipodi="http://sodipodi.sourceforge.net/DTD/sodipodi-0.dtd"
   xmlns:inkscape="http://www.inkscape.org/namespaces/inkscape"
   version="1.1"
   id="Ebene_1"
   x="0px"
   y="0px"
   width="455.565"
   height="455.57001"
   viewBox="0 0 455.565 455.57"
   enable-background="new 0 0 612 792"
   xml:space="preserve"
   inkscape:version="0.48.5 r10040"
   sodipodi:docname="c3s-flame-small.svg"><metadata
     id="metadata23"><rdf:RDF><cc:Work
         rdf:about=""><dc:format>image/svg+xml</dc:format><dc:type
           rdf:resource="http://purl.org/dc/dcmitype/StillImage" /><dc:title /></cc:Work></rdf:RDF></metadata><defs
     id="defs21" /><sodipodi:namedview
     pagecolor="#ffffff"
     bordercolor="#666666"
     borderopacity="1"
     objecttolerance="10"
     gridtolerance="10"
     guidetolerance="10"
     inkscape:pageopacity="0"
     inkscape:pageshadow="2"
     inkscape:window-width="1676"
     inkscape:window-height="1027"
     id="namedview19"
     showgrid="false"
     fit-margin-top="0"
     fit-margin-left="0"
     fit-margin-right="0"
     fit-margin-bottom="0"
     inkscape:zoom="0.84281414"
     inkscape:cx="34.592128"
     inkscape:cy="23.931087"
     inkscape:window-x="1600"
     inkscape:window-y="19"
     inkscape:window-maximized="1"
     inkscape:current-layer="Ebene_1"
     units="px" /><g
     transform="matrix(1,0,0,1.0411978,-47.924003,-217.72795)"
     id="g3"><path
       style="fill:#ffffff"
       inkscape:connector-curvature="0"
       d="m 311.924,567.772 c -88,0 -176,0 -264,0 0,-96.001 0,-192.001 0,-288.001 151.855,0 303.711,0 455.565,0 0,96 0,192 0,288.001 -58.326,0 -116.654,0 -174.982,0 0.707,-0.125 1.41,-0.262 2.119,-0.372 6.236,-0.97 12.549,-1.602 18.695,-2.971 13.736,-3.059 26.322,-9.043 38.52,-15.92 8.045,-4.536 16.246,-8.774 25.232,-11.16 43.361,-11.515 71.416,-39.154 85.564,-81.334 3.227,-9.619 4.902,-19.542 4.467,-29.791 -0.291,-6.822 0.65,-13.769 -0.26,-20.482 -3.705,-27.307 -15.613,-50.613 -35.74,-69.52 -15.287,-14.359 -33.596,-23.242 -53.725,-28.494 -12.119,-3.162 -24.09,-6.763 -35.227,-12.508 -16.695,-8.613 -34.123,-14.434 -53.027,-14.766 -9.721,-0.17 -19.457,0.305 -29.177,0.694 -1.563,0.062 -3.083,1.209 -4.623,1.855 1.199,1.131 2.226,2.59 3.631,3.334 4.36,2.307 9.048,4.036 13.271,6.556 6.469,3.858 12.805,7.982 18.9,12.402 3.234,2.345 3.232,5.997 0.143,8.574 -2.389,1.992 -5.277,3.686 -8.227,4.649 -8.779,2.869 -17.929,2.947 -26.684,0.547 -11.595,-3.178 -23.018,-7.1 -34.297,-11.286 -11.484,-4.262 -23.084,-7.434 -35.421,-7.216 -5.54,0.098 -11.211,0.198 -16,3.359 -10.198,6.731 -18.13,15.633 -23.77,26.478 -2.135,4.104 -1.542,5.027 3.046,5.197 7.407,0.275 14.821,0.329 22.231,0.529 8.738,0.236 17.431,0.868 25.725,3.951 9.447,3.511 15.472,10.035 17.332,20.104 1.109,5.998 1.008,12.015 -0.081,17.994 -0.854,4.692 -2.488,9.119 -5.417,12.952 -7.216,9.443 -17.139,11.595 -28.229,10.158 -9.018,-1.168 -17.107,-4.919 -24.853,-9.52 -11.378,-6.758 -23.008,-13.032 -35.508,-17.504 -8.667,-3.102 -17.483,-5.372 -26.856,-4.211 -9.704,1.201 -16.163,6.646 -18.025,15.665 -0.6,2.903 -0.799,5.9 -1.022,8.865 -0.507,6.729 -0.48,13.529 -1.465,20.184 -1.557,10.521 -7.604,17.416 -18.276,19.609 -3.755,0.771 -7.605,1.427 -11.421,1.486 -9.008,0.141 -18.022,-0.118 -27.034,-0.189 -1.185,-0.009 -2.37,0.14 -4.073,0.248 8.074,7.443 16.685,12.995 26.33,16.869 11.815,4.745 23.535,4.359 35.087,-1.064 7.312,-3.433 13.594,-8.322 19.739,-13.476 3.047,-2.555 6.31,-4.939 9.753,-6.915 5.743,-3.294 12.004,-4.675 18.67,-3.765 9.882,1.351 18.257,6.032 26.098,11.844 4.417,3.273 8.177,7.198 11.013,11.951 5.24,8.781 5.012,18.132 -0.616,25.783 -3.041,4.135 -6.904,7.439 -11.572,9.36 -5.745,2.364 -11.775,4.029 -17.663,6.052 -1.882,0.647 -4.361,0.935 -4.817,3.211 -0.498,2.485 1.899,3.554 3.539,4.766 6.867,5.075 14.872,7.132 23.126,8.344 17.533,2.574 34.952,1.225 52.259,-1.991 10.562,-1.963 20.987,-4.696 31.786,-5.214 7.804,-0.373 15.541,-0.252 23.048,2.328 6.667,2.292 9.129,6.992 7.68,14.522 -1.307,6.792 -6.064,11.284 -11.489,15.034 -9.403,6.499 -20.06,9.768 -31.222,11.463 -6.315,0.959 -12.699,1.461 -19.039,2.266 -1.453,0.185 -2.856,0.764 -4.282,1.162 -0.057,0.272 -0.115,0.545 -0.172,0.817 1.729,0.947 3.381,2.093 5.201,2.81 17.591,6.92 35.849,11.288 54.529,13.945 5.307,0.755 10.661,1.178 15.993,1.752 z"
       id="path5" /><path
       style="fill-rule:evenodd"
       inkscape:connector-curvature="0"
       clip-rule="evenodd"
       d="m 311.924,567.772 c -5.332,-0.574 -10.686,-0.997 -15.993,-1.752 -18.68,-2.657 -36.938,-7.025 -54.529,-13.945 -1.82,-0.717 -3.472,-1.862 -5.201,-2.81 0.057,-0.272 0.115,-0.545 0.172,-0.817 1.426,-0.398 2.829,-0.978 4.282,-1.162 6.34,-0.805 12.724,-1.307 19.039,-2.266 11.162,-1.695 21.818,-4.964 31.222,-11.463 5.425,-3.75 10.183,-8.242 11.489,-15.034 1.449,-7.53 -1.013,-12.23 -7.68,-14.522 -7.507,-2.58 -15.244,-2.701 -23.048,-2.328 -10.799,0.518 -21.224,3.251 -31.786,5.214 -17.307,3.216 -34.726,4.565 -52.259,1.991 -8.254,-1.212 -16.259,-3.269 -23.126,-8.344 -1.639,-1.212 -4.036,-2.28 -3.539,-4.766 0.456,-2.276 2.936,-2.563 4.817,-3.211 5.887,-2.022 11.918,-3.688 17.663,-6.052 4.668,-1.921 8.531,-5.226 11.572,-9.36 5.628,-7.651 5.856,-17.002 0.616,-25.783 -2.836,-4.753 -6.596,-8.678 -11.013,-11.951 -7.841,-5.812 -16.216,-10.493 -26.098,-11.844 -6.666,-0.91 -12.928,0.471 -18.67,3.765 -3.444,1.976 -6.706,4.36 -9.753,6.915 -6.146,5.153 -12.427,10.043 -19.739,13.476 -11.552,5.424 -23.272,5.81 -35.087,1.064 -9.645,-3.874 -18.256,-9.426 -26.33,-16.869 1.703,-0.108 2.888,-0.257 4.073,-0.248 9.012,0.071 18.026,0.33 27.034,0.189 3.816,-0.06 7.666,-0.716 11.421,-1.486 10.672,-2.193 16.719,-9.089 18.276,-19.609 0.984,-6.654 0.958,-13.455 1.465,-20.184 0.224,-2.965 0.423,-5.962 1.022,-8.865 1.862,-9.019 8.321,-14.464 18.025,-15.665 9.373,-1.16 18.188,1.11 26.856,4.211 12.5,4.472 24.13,10.746 35.508,17.504 7.745,4.601 15.834,8.352 24.853,9.52 11.09,1.437 21.013,-0.715 28.229,-10.158 2.929,-3.833 4.563,-8.26 5.417,-12.952 1.088,-5.979 1.189,-11.996 0.081,-17.994 -1.86,-10.068 -7.885,-16.592 -17.332,-20.104 -8.294,-3.083 -16.987,-3.715 -25.725,-3.951 -7.41,-0.2 -14.824,-0.254 -22.231,-0.529 -4.587,-0.17 -5.181,-1.093 -3.046,-5.197 5.639,-10.844 13.571,-19.746 23.77,-26.478 4.789,-3.161 10.46,-3.261 16,-3.359 12.336,-0.217 23.937,2.954 35.421,7.216 11.279,4.186 22.702,8.107 34.297,11.286 8.755,2.399 17.905,2.321 26.684,-0.547 2.949,-0.964 5.838,-2.657 8.227,-4.649 3.09,-2.577 3.092,-6.229 -0.143,-8.574 -6.096,-4.42 -12.432,-8.544 -18.9,-12.402 -4.223,-2.52 -8.911,-4.249 -13.271,-6.556 -1.405,-0.744 -2.432,-2.203 -3.631,-3.334 1.54,-0.646 3.06,-1.792 4.623,-1.855 9.721,-0.39 19.457,-0.864 29.177,-0.694 18.904,0.332 36.332,6.152 53.027,14.766 11.137,5.745 23.107,9.346 35.227,12.508 20.129,5.252 38.438,14.135 53.725,28.494 20.127,18.907 32.035,42.213 35.74,69.52 0.91,6.714 -0.031,13.66 0.26,20.482 0.436,10.249 -1.24,20.172 -4.467,29.791 -14.148,42.18 -42.203,69.819 -85.564,81.334 -8.986,2.386 -17.188,6.624 -25.232,11.16 -12.197,6.877 -24.783,12.861 -38.52,15.92 -6.146,1.369 -12.459,2.001 -18.695,2.971 -0.709,0.11 -1.412,0.247 -2.119,0.372 -5.528,0 -11.056,0 -16.583,0 z M 292.075,422.56 c -0.376,50.018 42.904,93.238 93.785,93.903 46.805,0.611 93.195,-36.61 94.568,-92.842 1.229,-50.247 -40.01,-93.61 -89.041,-95.528 -50.188,-1.964 -98.997,36.953 -99.312,94.467 z"
       id="path7" /><path
       style="fill:#ffffff;fill-rule:evenodd"
       inkscape:connector-curvature="0"
       clip-rule="evenodd"
       d="m 292.075,422.56 c 0.315,-57.513 49.125,-96.43 99.312,-94.466 49.031,1.918 90.27,45.281 89.041,95.528 -1.373,56.231 -47.764,93.453 -94.568,92.842 -50.881,-0.666 -94.161,-43.887 -93.785,-93.904 z m 42.046,-10.729 c 0.205,-2.187 0.459,-6.394 1.025,-10.559 0.68,-4.984 2.178,-9.662 6.406,-12.924 2.574,-1.987 5.371,-3.393 8.666,-2.054 3.357,1.363 4.518,4.317 4.914,7.65 0.197,1.656 0.207,3.334 0.402,4.99 0.836,7.067 6.166,11.283 12.609,10.014 6.473,-1.274 9.99,-6.702 8.488,-13.068 -1.217,-5.156 -4.49,-8.724 -8.92,-11.293 -6.162,-3.575 -12.926,-4.767 -19.939,-4.316 -15.232,0.98 -26.889,7.802 -33.861,21.649 -4.945,9.82 -5.875,20.282 -3.904,31.008 1.627,8.86 5.268,16.779 11.959,22.985 11.729,10.875 31.969,11.898 45.656,2.117 3.484,-2.489 6.318,-5.909 9.328,-9.021 0.467,-0.481 0.271,-1.604 0.381,-2.429 -0.807,-0.088 -1.738,-0.479 -2.4,-0.209 -2.205,0.897 -4.361,1.947 -6.455,3.089 -9.676,5.279 -19.947,3.381 -26.609,-5.394 -2.189,-2.884 -3.881,-6.325 -5.055,-9.767 -2.246,-6.582 -2.527,-13.526 -2.691,-22.468 z m 58.899,-13.34 c 0.113,0.013 0.227,0.025 0.342,0.038 0,1.016 -0.09,2.041 0.016,3.045 0.318,3.02 0.471,6.085 1.141,9.03 0.713,3.146 4.408,5.983 7.434,6.18 3.617,0.233 5.533,-2.059 7.002,-4.898 0.496,-0.958 0.908,-1.986 1.18,-3.03 1.959,-7.519 1.826,-15.096 0.158,-22.613 -0.98,-4.414 -3.58,-6.165 -8.014,-6.103 -4.451,0.062 -6.994,1.865 -7.844,6.294 -0.761,3.964 -0.966,8.034 -1.415,12.057 z m 42.277,0.576 c -0.527,-4.382 -0.83,-8.815 -1.645,-13.151 -0.854,-4.531 -4.713,-6.476 -9.092,-5.004 -3.123,1.051 -5.355,3.158 -6.104,6.305 -1.957,8.216 -1.703,16.44 0.861,24.505 0.975,3.064 4.334,4.854 7.881,4.625 3.453,-0.224 5.879,-1.971 6.527,-5.349 0.752,-3.906 1.06,-7.894 1.572,-11.931 z m 6.592,-0.188 c 0.408,3.844 0.805,8.324 1.412,12.775 0.145,1.06 0.756,2.305 1.559,2.982 4.803,4.05 11.648,1.724 12.76,-4.395 0.582,-3.198 0.879,-6.498 0.842,-9.747 -0.057,-4.78 -0.377,-9.571 -0.885,-14.326 -0.258,-2.425 -1.346,-4.808 -4.006,-5.499 -5.537,-1.437 -9.824,-0.198 -10.697,6.265 -0.507,3.736 -0.634,7.521 -0.985,11.945 z"
       id="path9" /><path
       style="fill-rule:evenodd"
       inkscape:connector-curvature="0"
       clip-rule="evenodd"
       d="m 334.121,411.831 c 0.164,8.942 0.445,15.886 2.691,22.47 1.174,3.441 2.865,6.883 5.055,9.767 6.662,8.774 16.934,10.673 26.609,5.394 2.094,-1.142 4.25,-2.191 6.455,-3.089 0.662,-0.27 1.594,0.121 2.4,0.209 -0.109,0.825 0.086,1.947 -0.381,2.429 -3.01,3.111 -5.844,6.531 -9.328,9.021 -13.688,9.781 -33.928,8.758 -45.656,-2.117 -6.691,-6.206 -10.332,-14.125 -11.959,-22.985 -1.971,-10.726 -1.041,-21.188 3.904,-31.008 6.973,-13.848 18.629,-20.669 33.861,-21.649 7.014,-0.451 13.777,0.741 19.939,4.316 4.43,2.569 7.703,6.137 8.92,11.293 1.502,6.366 -2.016,11.794 -8.488,13.068 -6.443,1.27 -11.773,-2.946 -12.609,-10.014 -0.195,-1.656 -0.205,-3.334 -0.402,-4.99 -0.396,-3.333 -1.557,-6.287 -4.914,-7.65 -3.295,-1.339 -6.092,0.067 -8.666,2.054 -4.229,3.263 -5.727,7.94 -6.406,12.924 -0.566,4.164 -0.82,8.371 -1.025,10.557 z"
       id="path11" /><path
       style="fill-rule:evenodd"
       inkscape:connector-curvature="0"
       clip-rule="evenodd"
       d="m 393.02,398.491 c 0.449,-4.023 0.654,-8.093 1.414,-12.057 0.85,-4.43 3.393,-6.232 7.844,-6.294 4.434,-0.062 7.033,1.689 8.014,6.103 1.668,7.517 1.801,15.094 -0.158,22.613 -0.271,1.044 -0.684,2.072 -1.18,3.03 -1.469,2.84 -3.385,5.132 -7.002,4.898 -3.025,-0.196 -6.721,-3.034 -7.434,-6.18 -0.67,-2.945 -0.822,-6.011 -1.141,-9.03 -0.105,-1.004 -0.016,-2.029 -0.016,-3.045 -0.115,-0.012 -0.228,-0.025 -0.341,-0.038 z"
       id="path13" /><path
       style="fill-rule:evenodd"
       inkscape:connector-curvature="0"
       clip-rule="evenodd"
       d="m 435.297,399.067 c -0.512,4.036 -0.82,8.024 -1.57,11.931 -0.648,3.378 -3.074,5.125 -6.527,5.349 -3.547,0.229 -6.906,-1.561 -7.881,-4.625 -2.564,-8.065 -2.818,-16.289 -0.861,-24.505 0.748,-3.146 2.98,-5.254 6.104,-6.305 4.379,-1.472 8.238,0.474 9.092,5.004 0.813,4.336 1.116,8.769 1.643,13.151 z"
       id="path15" /><path
       style="fill-rule:evenodd"
       inkscape:connector-curvature="0"
       clip-rule="evenodd"
       d="m 441.889,398.879 c 0.352,-4.424 0.479,-8.209 0.984,-11.943 0.873,-6.463 5.16,-7.702 10.697,-6.265 2.66,0.69 3.748,3.074 4.006,5.499 0.508,4.754 0.828,9.545 0.885,14.326 0.037,3.249 -0.26,6.549 -0.842,9.747 -1.111,6.118 -7.957,8.444 -12.76,4.395 -0.803,-0.678 -1.414,-1.923 -1.559,-2.982 -0.607,-4.453 -1.003,-8.933 -1.411,-12.777 z"
       id="path17" /></g></svg>