<?xml version="1.0" encoding="UTF-8" standalone="no"?>
<!-- Created with Inkscape (http://www.inkscape.org/) -->

<svg
   xmlns:dc="http://purl.org/dc/elements/1.1/"
   xmlns:cc="http://creativecommons.org/ns#"
   xmlns:rdf="http://www.w3.org/1999/02/22-rdf-syntax-ns#"
   xmlns:svg="http://www.w3.org/2000/svg"
   xmlns="http://www.w3.org/2000/svg"
   xmlns:sodipodi="http://sodipodi.sourceforge.net/DTD/sodipodi-0.dtd"
   xmlns:inkscape="http://www.inkscape.org/namespaces/inkscape"
   width="64px"
   height="64px"
   id="svg3177"
   version="1.1"
   inkscape:version="0.48.5 r10040"
   sodipodi:docname="Neues Dokument 11">
  <defs
     id="defs3179" />
  <sodipodi:namedview
     id="base"
     pagecolor="#ffffff"
     bordercolor="#666666"
     borderopacity="1.0"
     inkscape:pageopacity="0.0"
     inkscape:pageshadow="2"
     inkscape:zoom="5.5"
     inkscape:cx="76.960899"
     inkscape:cy="20.504938"
     inkscape:current-layer="layer1"
     showgrid="true"
     inkscape:document-units="px"
     inkscape:grid-bbox="true"
     inkscape:window-width="1676"
     inkscape:window-height="539"
     inkscape:window-x="1600"
     inkscape:window-y="19"
     inkscape:window-maximized="0" />
  <metadata
     id="metadata3182">
    <rdf:RDF>
      <cc:Work
         rdf:about="">
        <dc:format>image/svg+xml</dc:format>
        <dc:type
           rdf:resource="http://purl.org/dc/dcmitype/StillImage" />
        <dc:title></dc:title>
      </cc:Work>
    </rdf:RDF>
  </metadata>
  <g
     id="layer1"
     inkscape:label="Layer 1"
     inkscape:groupmode="layer">
    <g
       transform="matrix(0.45493979,0,0,0.45493979,-0.37720003,-0.17046178)"
       id="g3143">
      <path
         style="fill:#cfcfcf"
         d="M 54.255233,139.10671 C 1.0071039,125.2107 -16.782584,59.289265 22.259508,20.543409 66.190192,-23.053947 141.71887,8.6411068 141.71887,70.67365 c 0,45.37257 -43.977677,79.78146 -87.463637,68.43306 z m 35.47743,-15.99399 C 137.78529,106.60601 139.64612,38.303637 92.562913,19.227369 55.981007,4.4058174 15.943997,31.288934 15.943997,70.67365 c 0,38.1888 37.562555,64.88322 73.788666,52.43907 z M 39.879998,95.264228 C 16.53621,86.583821 21.570465,48.470552 46.512381,45.051882 59.253421,43.305528 71.319589,54.609294 64.255233,61.67365 59.426115,66.502768 53.224503,63.409236 52.494008,55.806832 51.062235,40.906084 40.725759,50.063599 40.792541,66.17365 c 0.07734,18.657006 10.486532,27.821092 21.799706,19.192113 4.912297,-3.746791 6.436343,-1.166159 2.042883,3.459168 -6.212921,6.540811 -16.962509,9.33699 -24.755132,6.439297 z M 76.826662,66.102221 C 72.627854,61.903413 75.607736,44.67365 80.532727,44.67365 c 5.121885,0 8.30508,14.305899 4.687322,21.065741 -1.274496,2.381418 -6.163459,2.592759 -8.393387,0.36283 z m 13.985275,-0.651077 c -5.876608,-8.390034 1.37567,-26.034639 7.788308,-18.948753 2.040625,2.254864 2.399925,18.026315 0.454988,19.971259 -1.989045,1.989045 -6.528301,1.425992 -8.243296,-1.022506 z m 14.643293,1.022506 c -2.08345,-2.083451 -1.58218,-18.144153 0.62874,-20.145012 5.05569,-4.575339 9.17126,-0.257277 9.17126,9.622506 0,10.103359 -4.92792,15.394588 -9.8,10.522506 z"
         id="path3157"
         inkscape:connector-curvature="0" />
      <path
         style="fill:#b0b0b0"
         d="M 59.255233,139.98706 C 14.718573,132.60782 -11.582832,82.530668 7.533582,41.510466 37.389744,-22.555198 131.91028,-7.652146 141.36635,62.611875 147.44657,107.79148 105.2016,147.59988 59.255233,139.98706 z M 89.374803,123.423 C 139.97956,105.02651 140.03347,36.316066 89.457545,17.957991 58.793723,6.8276225 23.596597,26.784219 16.766155,59.17365 7.9236749,101.10401 49.520082,137.9115 89.374803,123.423 z M 42.755233,95.760088 c -24.618148,-6.16974 -23.051399,-45.34548 2,-50.008982 13.801536,-2.569258 26.733175,7.723182 19.447467,15.478463 -4.965889,5.285947 -10.900845,1.984687 -11.717839,-6.517932 -1.310476,-13.638386 -12.04479,-3.911683 -12.173186,11.030512 -0.154019,17.924049 10.278814,28.005347 21.237967,20.522353 6.100119,-4.165209 7.656364,-3.062664 3.182253,2.254514 -4.594289,5.460002 -15.174062,8.945922 -21.976662,7.241072 z M 76.811937,65.451144 C 74.873943,62.68427 74.65457,49.820027 76.505233,47.465755 c 4.914946,-6.252419 9.75,-1.763056 9.75,9.052907 0,10.375942 -5.071915,15.173503 -9.443296,8.932482 z m 14.643296,1.022506 c -2.56153,-2.56153 -1.54361,-18.528752 1.3,-20.391957 5.041578,-3.303369 7.499997,-0.01119 7.499997,10.043581 0,10.367593 -4.035373,15.113 -8.799997,10.348376 z m 14.425717,-0.317138 c -2.91093,-2.910932 -2.30315,-17.992889 0.80722,-20.030881 4.92723,-3.228441 8.57919,1.410276 8.55232,10.863119 -0.0252,8.86454 -4.89386,13.63344 -9.35954,9.167762 z"
         id="path3155"
         inkscape:connector-curvature="0" />
      <path
         style="fill:#8f8f8f"
         d="M 56.755233,139.206 C 16.191394,130.35865 -8.2681826,88.008182 4.7284728,49.124396 26.029106,-14.60348 114.90074,-15.495698 137.72886,47.789151 155.93422,98.25867 109.47879,150.70549 56.755233,139.206 z M 84.202345,125.12449 C 126.94699,115.04951 141.9469,62.145552 110.83489,31.192766 72.823923,-6.6236701 8.3057302,25.787104 16.034729,78.815716 20.723977,110.98862 52.52354,132.59124 84.202345,125.12449 z M 37.45895,93.54546 C 20.691509,85.245759 21.105597,57.604168 38.136232,48.334935 c 12.837304,-6.986936 32.654351,1.113948 27.088066,11.073158 -4.318514,7.726698 -11.19457,5.006514 -12.472393,-4.934107 -0.981261,-7.633562 -7.18581,-7.899961 -10.566868,-0.453699 -8.542991,18.814631 6.741757,43.215051 20.053807,32.0137 4.949678,-4.16488 6.085031,-1.50365 1.34343,3.148955 -7.03813,6.906029 -17.466523,8.64754 -26.123324,4.362518 z M 76.811937,65.451144 C 72.553746,59.371725 75.646119,45.67365 81.276753,45.67365 c 3.946286,0 4.97848,2.338544 4.97848,11.279271 0,9.946214 -5.170172,14.598962 -9.443296,8.498223 z m 15.193296,1.142407 c -4.731578,-2.755891 -1.909718,-20.919901 3.25,-20.919901 4.194251,0 4.999997,1.699326 4.999997,10.545012 0,10.225124 -2.692891,13.611606 -8.249997,10.374889 z m 13.821427,-0.49133 c -4.33287,-4.332868 -1.63149,-20.428571 3.42857,-20.428571 4.253,0 5,1.668017 5,11.164816 0,10.344235 -3.50061,14.191718 -8.42857,9.263755 z"
         id="path3153"
         inkscape:connector-curvature="0" />
      <path
         style="fill:#6f6f6f"
         d="M 56.755233,139.13942 C 2.7174246,127.48184 -16.946531,60.670154 22.152603,21.57102 66.313449,-22.589826 141.25523,8.3065426 141.25523,70.67365 c 0,44.45008 -41.17532,77.81222 -84.499997,68.46577 z M 84.795134,125.15203 C 128.15579,114.08201 142.12981,60.223454 109.5694,29.667231 74.268565,-3.4607443 15.284795,22.192575 15.284795,70.67365 c 0,35.84563 35.011741,63.28591 69.510339,54.47838 z M 37.45895,93.54546 C 20.275268,85.039724 21.713948,55.729635 39.716525,47.552122 c 12.730429,-5.782686 29.893777,2.349106 25.279244,11.977008 -3.179218,6.633218 -11.740536,4.486223 -11.740536,-2.944274 0,-10.840421 -10.542609,-10.196688 -12.59985,0.769348 -3.999705,21.320262 9.260729,39.048678 21.502654,28.747777 4.489663,-3.777802 6.003167,-1.972877 1.934102,2.306509 -6.905742,7.262684 -18.011305,9.404708 -26.633189,5.13697 z M 78.005233,66.593551 c -2.147222,-1.250642 -2.605025,-17.664876 -0.55,-19.719901 4.490856,-4.490856 8.8,-0.01085 8.8,9.148922 0,10.016314 -2.875799,13.701164 -8.25,10.570979 z m 13.821429,-0.49133 C 89.864613,64.140173 89.567548,48.761335 91.455233,46.87365 c 4.783411,-4.783411 8.799997,-0.182923 8.799997,10.079271 0,9.572402 -3.838612,13.739257 -8.428568,9.1493 z m 14.083558,-0.257312 c -4.15281,-4.588798 -1.69608,-20.171259 3.18019,-20.171259 4.37784,0 5.16482,1.619518 5.16482,10.628571 0,10.599007 -3.63122,14.751375 -8.34501,9.542688 z"
         id="path3151"
         inkscape:connector-curvature="0" />
      <path
         style="fill:#505050"
         d="M 60.018619,139.7091 C 3.6619767,129.40744 -17.966529,61.838643 22.226848,21.645265 66.214212,-22.342098 141.25523,8.5676723 141.25523,70.67365 c 0,42.57015 -40.01049,76.57135 -81.236611,69.03545 z m 25.592269,-14.61964 c 42.741842,-11.02011 56.447022,-65.460478 24.020622,-95.41581 -35.990168,-33.2475167 -94.376277,-7.882769 -94.376277,41 0,36.51175 34.950959,63.54418 70.355655,54.41581 z M 37.701577,93.173228 C 22.868857,85.675155 20.946559,63.316203 34.112038,51.421983 c 10.881815,-9.831066 31.143195,-6.372338 31.143195,5.316313 0,9.823136 -10.956061,8.692466 -11.974555,-1.235778 -1.557532,-15.182767 -13.332309,-5.844523 -13.318738,10.562716 0.01514,18.303973 11.709495,28.860641 22.196097,20.036747 4.489663,-3.777802 6.003167,-1.972877 1.934102,2.306509 -7.114327,7.48205 -17.356928,9.331322 -26.390562,4.764738 z M 78.005233,66.593551 c -2.147222,-1.250642 -2.605025,-17.664876 -0.55,-19.719901 4.414863,-4.414863 8.8,0.579463 8.8,10.022506 0,8.949982 -3.158674,12.66282 -8.25,9.697395 z M 91.910221,65.844909 C 89.87757,63.598856 89.522795,48.806088 91.455233,46.87365 c 4.646507,-4.646507 8.799997,-0.01408 8.799997,9.814725 0,9.854671 -3.870157,14.10119 -8.345009,9.156534 z m 14.567519,0.272037 c -2.86036,-2.003471 -3.34923,-16.173717 -0.65108,-18.871867 4.90704,-4.907039 8.42857,-1.157795 8.42857,8.973583 0,10.462224 -2.47509,13.612231 -7.77749,9.898284 z"
         id="path3149"
         inkscape:connector-curvature="0" />
      <path
         style="fill:#2d2d2d"
         d="M 61.011489,139.64693 C 4.4839861,130.79158 -18.084103,62.064238 22.280859,21.699276 59.187072,-15.206937 121.59251,-0.29324189 137.85302,49.318793 153.71895,97.726909 111.34953,147.53266 61.011489,139.64693 z M 86.323732,125.0773 C 122.9164,114.32251 139.46895,72.0695 119.30877,40.87778 88.629033,-6.5897395 15.255233,14.420946 15.255233,70.67365 c 0,36.86404 36.271923,64.63056 71.068499,54.40365 z M 39.255233,94.079345 C 12.377858,82.437442 28.035292,38.580277 56.186558,46.653954 66.773711,49.69031 69.127175,62.67365 59.090417,62.67365 c -4.435042,0 -5.835184,-1.87443 -5.835184,-7.811814 0,-12.15152 -11.985919,-6.2336 -13.481984,6.656586 -2.346799,20.220166 10.442344,34.15188 22.740232,24.771824 5.346345,-4.077857 5.44297,-1.403806 0.118624,3.28287 -6.883168,6.058807 -15.816756,7.780885 -23.376872,4.506229 z m 40,-27.201565 c -5.524538,-1.856311 -4.085089,-21.20413 1.577555,-21.20413 3.731638,0 4.524179,2.170836 4.21282,11.53926 -0.30341,9.129233 -1.490022,11.10984 -5.790375,9.66487 z m 13.222506,-0.760834 c -2.860356,-2.003471 -3.349228,-16.173717 -0.651077,-18.871867 4.581291,-4.581292 8.428568,-0.355728 8.428568,9.257312 0,9.574435 -2.833626,13.077373 -7.777491,9.614555 z M 106.25523,65.67365 c -4.62149,-4.621492 -2.11686,-20 3.25731,-20 5.16626,0 7.27581,17.112325 2.52018,20.443296 -2.86015,2.003332 -3.36998,1.964214 -5.77749,-0.443296 z"
         id="path3147"
         inkscape:connector-curvature="0" />
      <path
         style="fill:#010101"
         d="M 63.448097,139.61106 C -4.9360958,130.62582 -21.159882,39.644617 40.111707,8.7431615 86.386048,-14.594646 140.71095,18.848625 140.71095,70.67365 c 0,41.75262 -36.47442,74.29675 -77.262853,68.93741 z M 87.446113,125.05117 C 135.02968,111.16102 142.45639,45.427718 99.158283,21.38759 50.838789,-5.4405265 -3.2904759,45.765327 20.642796,95.662616 c 6.642911,13.849474 23.223267,27.027974 37.612437,29.895344 3.025,0.6028 6.4,1.29932 7.5,1.54781 3.422037,0.77306 16.126678,-0.43035 21.69088,-2.0546 z M 40.983692,94.402779 C 17.863469,86.867998 21.984487,49.835982 46.349805,46.182177 58.467174,44.365065 70.2656,54.520426 63.683804,61.102221 c -4.219056,4.219056 -10.414265,0.422 -10.443884,-6.401077 -0.04322,-9.957365 -10.229348,-8.055655 -12.862458,2.401371 -5.457102,21.672117 9.289272,40.35165 22.848334,28.942451 2.226565,-1.873531 3.029437,-2.151568 3.029437,-1.049103 0,1.693554 -4.764633,5.987593 -9.173643,8.267581 -4.030129,2.084061 -11.563091,2.617209 -16.097898,1.139335 z M 77.455233,65.47365 c -3.318131,-3.318131 -0.873179,-19.8 2.93717,-19.8 3.920525,0 4.86283,2.002721 4.86283,10.335184 0,8.711111 -0.824362,10.664816 -4.5,10.664816 -1.155,0 -2.64,-0.54 -3.3,-1.2 z m 13.86644,-0.675855 c -1.712789,-3.200376 -1.353339,-15.694389 0.504989,-17.552716 4.816251,-4.816252 7.581074,-0.95578 7.218946,10.079683 l -0.290375,8.848888 -3.18356,0.308403 c -2.357234,0.228354 -3.460365,-0.208812 -4.25,-1.684258 z m 14.600227,1.209188 c -1.20576,-1.205761 -0.74158,-17.858424 0.53333,-19.133333 5.36942,-5.36942 11.1001,9.765189 6.76482,17.865741 -1.01091,1.888903 -5.83838,2.727369 -7.29815,1.267592 z"
         id="path3145"
         inkscape:connector-curvature="0" />
    </g>
  </g>
</svg>
